<?xml version="1.0" encoding="UTF-8" standalone="no"?>
<!DOCTYPE svg  PUBLIC '-//W3C//DTD SVG 1.1//EN'  'http://www.w3.org/Graphics/SVG/1.1/DTD/svg11.dtd'>
<svg xmlns="http://www.w3.org/2000/svg" xmlns:xl="http://www.w3.org/1999/xlink" height="207pt" width="153pt" version="1.1" viewBox="49 50 153 207" xmlns:dc="http://purl.org/dc/elements/1.1/">
 <g class="soupcms-logo-svg" fill="none">
  <path stroke-linejoin="round" d="m157.7 59c-31.11 0-31.11 0.023-62.218 0.023-18.962 0-37.482 15.2-37.482 44.657 0 49.09 2.94 49.09 2.94 98.17 0 29.45 15.58 44.98 34.542 44.98 31.108 0 31.108 1.17 62.218 1.17 18.96 0 32.93-16.7 32.93-46.15 0-49.08 1.41-49.05 2.37-98.13 0-29.459-16.34-44.72-35.3-44.72z" stroke="#fff" stroke-linecap="round" stroke-width="15" class="logo-border-stroke"/>
  <path fill="#fff" class="logo-page-fill" d="m156.05 63c-29.03 0-29.03 0.022-58.067 0.022-17.698 0-34.983 14.476-34.983 42.528 0 46.75 2.744 46.75 2.744 93.5 0 28.05 14.541 42.84 32.239 42.84 29.037 0 29.037 1.11 58.067 1.11 17.7 0 30.74-15.9 30.74-43.95 0-46.75 1.32-46.72 2.21-93.46 0-28.056-15.25-42.59-32.95-42.59z"/>
  <path stroke-linejoin="round" d="m156.05 63c-29.03 0-29.03 0.022-58.067 0.022-17.698 0-34.983 14.476-34.983 42.528 0 46.75 2.744 46.75 2.744 93.5 0 28.05 14.541 42.84 32.239 42.84 29.037 0 29.037 1.11 58.067 1.11 17.7 0 30.74-15.9 30.74-43.95 0-46.75 1.32-46.72 2.21-93.46 0-28.056-15.25-42.59-32.95-42.59z" stroke="#432b69" stroke-linecap="round" stroke-width="10" class="logo-page-stroke"/>
  <path fill="#432b69" class="logo-object" d="m121.17 176c-6.72 0.09-13.45 0.14-20.15 0.26-4.692 0.09-9.316 0.26-13.542 0.72-7.652 0.82-9.612 3.33 0.115 4.29 2.587 0.26 5.326 0.51 8.15 0.62 8.517 0.35 17.037 0.53 25.537 0.53 9.84 0 19.66-0.24 29.43-0.72 5.85-0.29 11.47-0.73 16.33-1.45 5.42-0.81 5.3-1.68-0.52-2.39-2.73-0.32-5.75-0.58-8.77-0.79-11.8-0.84-24.12-1.02-36.58-1.07z"/>
  <path fill="#432b69" class="logo-object" d="m121.17 194c-6.72 0.09-13.45 0.14-20.15 0.26-4.692 0.09-9.316 0.26-13.542 0.72-7.652 0.82-9.612 3.33 0.115 4.29 2.587 0.26 5.326 0.51 8.15 0.62 8.517 0.35 17.037 0.53 25.537 0.53 9.84 0 19.66-0.24 29.43-0.72 5.85-0.29 11.47-0.73 16.33-1.45 5.42-0.81 5.3-1.68-0.52-2.39-2.73-0.32-5.75-0.58-8.77-0.79-11.8-0.84-24.12-1.02-36.58-1.07z"/>
  <path fill="#432b69" class="logo-object" d="m121.17 212c-6.72 0.09-13.45 0.14-20.15 0.26-4.692 0.09-9.316 0.26-13.542 0.72-7.652 0.82-9.612 3.33 0.115 4.29 2.587 0.26 5.326 0.51 8.15 0.62 8.517 0.35 17.037 0.53 25.537 0.53 9.84 0 19.66-0.24 29.43-0.72 5.85-0.29 11.47-0.73 16.33-1.45 5.42-0.81 5.3-1.68-0.52-2.39-2.73-0.32-5.75-0.58-8.77-0.79-11.8-0.84-24.12-1.02-36.58-1.07z"/>
  <path fill="#432b69" class="logo-object" d="m100.56 108c-3.08 0-5.772 1.02-7.859 3.88-3.024 4.15-3.171 13.03 1.668 16.76 0.77 0.59 1.422 1.4 2.078 2.16 1.713 1.99 2.266 4.44 2.073 7.16-0.154 2.19-0.852 4.15-1.903 5.96-1.488 2.55-3.072 5.04-4.483 7.65-0.782 1.44-1.448 3.02-1.904 4.64-0.711 2.52 0.251 3.78 2.521 3.78h0.065c2.387-0.03 4.259-1.28 6.113-2.82 2.101-1.74 4.221-3.55 6.531-4.87 1.64-0.94 3.27-1.44 4.89-1.44 2 0 3.98 0.78 5.89 2.47 2.38 2.11 4.93 3.98 7.45 5.88 2.1 1.59 4.43 2.5 6.97 2.76 0.22 0.02 0.43 0.03 0.63 0.03 2.14 0 2.99-1.29 2.54-3.99-0.6-3.71-2.22-6.95-3.64-10.29-1.07-2.54-2.09-5.15-2.86-7.82-1.53-5.23-1.02-10.06 2.62-14.14 1.12-1.27 2.1-2.72 3.1-4.13 1.09-1.51 1.73-3.25 1.95-5.28-0.27-1.2-0.39-2.48-0.85-3.58-1.1-2.62-3.36-4.04-5.75-4.04-1.54 0-3.13 0.59-4.49 1.83-2.05 1.86-3.98 3.88-6 5.75-0.92 0.85-1.83 1.26-2.72 1.26-1.02 0-2.02-0.54-2.96-1.61-1.13-1.27-2.29-2.52-3.36-3.87-2.15-2.73-4.85-4.02-8.02-4.09h-0.29z"/>
  <path fill="#432b69" class="logo-object" d="m157.87 99.681h-0.04c-2.71-0.017-4.91-2.082-4.94-4.64-0.04-2.935 2.23-5.215 5.19-5.217h0.01c2.78 0 4.92 2.025 4.94 4.688 0.03 2.968-2.17 5.169-5.16 5.169m-1.53-18.681c-0.08 0-0.16 0.001-0.23 0.001-11.02 0.091-17.88 11.274-12.53 20.259 2.77 4.66 8.73 6.74 13.66 6.74 1.42 0 2.76-0.17 3.9-0.51 6.1-1.76 9.83-6.72 9.86-14.263-0.01-3.215-1.32-7.062-5.31-9.736-2.79-1.871-5.99-2.491-9.35-2.491"/>
 </g>
</svg>
