<?xml version="1.0" encoding="utf-8" standalone="no"?>
<!DOCTYPE svg PUBLIC "-//W3C//DTD SVG 1.1//EN" "http://www.w3.org/Graphics/SVG/1.1/DTD/svg11.dtd">
<svg xmlns="http://www.w3.org/2000/svg" xmlns:xl="http://www.w3.org/1999/xlink" version="1.1" viewBox="49 50 153 207"
     width="153pt" height="207pt" xmlns:dc="http://purl.org/dc/elements/1.1/">

  <g class="soupcms-logo-svg" stroke="none" stroke-opacity="1" stroke-dasharray="none" fill="none" fill-opacity="1">

    <g>

      <path class="logo-border-stroke" d="M 157.70097 59 C 126.588795 59 126.588795 59.022926 95.48188 59.022926 C 76.520026 59.022926 58 74.222707 58 103.682314 C 58 152.76638 60.94027 152.76638 60.94027 201.85044 C 60.94027 231.3024 76.520026 246.83079 95.48188 246.83079 C 126.588795 246.83079 126.588795 248 157.70097 248 C 176.65756 248 190.63306 231.3024 190.63306 201.85044 C 190.63306 152.76638 192.0427 152.79694 193 103.720524 C 193 74.260917 176.65756 59 157.70097 59 Z"
            stroke="white" stroke-linecap="round" stroke-linejoin="round" stroke-width="15"/>
    </g>


    <g>


      <path class="logo-page-fill" d="M 156.054235 63 C 127.01621 63 127.01621 63.021834 97.98309 63.021834 C 80.28536 63.021834 63 77.497817 63 105.554585 C 63 152.30131 65.744253 152.30131 65.744253 199.04803 C 65.744253 227.09753 80.28536 241.88646 97.98309 241.88646 C 127.01621 241.88646 127.01621 243 156.054235 243 C 173.74706 243 186.79085 227.09753 186.79085 199.04803 C 186.79085 152.30131 188.10652 152.33042 189 105.590975 C 189 77.534207 173.74706 63 156.054235 63 Z"
            fill="white"/>
      <path class="logo-page-stroke" d="M 156.054235 63 C 127.01621 63 127.01621 63.021834 97.98309 63.021834 C 80.28536 63.021834 63 77.497817 63 105.554585 C 63 152.30131 65.744253 152.30131 65.744253 199.04803 C 65.744253 227.09753 80.28536 241.88646 97.98309 241.88646 C 127.01621 241.88646 127.01621 243 156.054235 243 C 173.74706 243 186.79085 227.09753 186.79085 199.04803 C 186.79085 152.30131 188.10652 152.33042 189 105.590975 C 189 77.534207 173.74706 63 156.054235 63 Z"
            stroke="#432b69" stroke-linecap="round" stroke-linejoin="round" stroke-width="10"/>



      <path class="logo-object" d="M 121.17274 176 C 114.45389 176.08548 107.721047 176.14458 101.02181 176.26424 C 96.32786 176.34825 91.70393 176.52458 87.477696 176.9798 C 79.826224 177.80428 77.865745 180.30897 87.592524 181.27363 C 90.180357 181.53055 92.919427 181.77525 95.742517 181.8915 C 104.2594 182.24073 112.77628 182.41803 121.27636 182.41803 C 131.11797 182.41803 140.93717 182.18065 150.71156 181.70003 C 156.56499 181.41234 162.18317 180.97471 167.03955 180.25134 C 172.46168 179.44298 172.34405 178.56624 166.51583 177.86387 C 163.79356 177.53613 160.77442 177.28019 157.74688 177.06576 C 145.9504 176.2281 133.63298 176.04884 121.17274 176 Z"
            fill="#432b69"/>

      <path class="logo-object" d="M 121.17274 194 C 114.45389 194.08548 107.721047 194.14458 101.02181 194.26424 C 96.32786 194.34825 91.70393 194.52458 87.477696 194.9798 C 79.826224 195.80428 77.865745 198.30897 87.592524 199.27363 C 90.180357 199.53055 92.919427 199.77525 95.742517 199.8915 C 104.2594 200.24073 112.77628 200.41803 121.27636 200.41803 C 131.11797 200.41803 140.93717 200.18065 150.71156 199.70003 C 156.56499 199.41234 162.18317 198.97471 167.03955 198.25134 C 172.46168 197.44298 172.34405 196.56624 166.51583 195.86387 C 163.79356 195.53613 160.77442 195.28019 157.74688 195.06576 C 145.9504 194.2281 133.63298 194.04884 121.17274 194 Z"
            fill="#432b69"/>

      <path class="logo-object" d="M 121.17274 212 C 114.45389 212.08548 107.721047 212.14458 101.02181 212.26424 C 96.32786 212.34825 91.70393 212.52458 87.477696 212.9798 C 79.826224 213.80428 77.865745 216.30897 87.592524 217.27363 C 90.180357 217.53055 92.919427 217.77525 95.742517 217.8915 C 104.2594 218.24073 112.77628 218.41803 121.27636 218.41803 C 131.11797 218.41803 140.93717 218.18065 150.71156 217.70003 C 156.56499 217.41234 162.18317 216.97471 167.03955 216.25134 C 172.46168 215.44298 172.34405 214.56624 166.51583 213.86387 C 163.79356 213.53613 160.77442 213.28019 157.74688 213.06576 C 145.9504 212.2281 133.63298 212.04884 121.17274 212 Z"
            fill="#432b69"/>

      <path class="logo-object" d="M 100.557445 108 C 97.479505 108 94.78833 109.01691 92.7006 111.88317 C 89.67733 116.02921 89.52951 124.906995 94.369166 128.635665 C 95.13865 129.228286 95.79069 130.03536 96.446775 130.79631 C 98.15989 132.79093 98.712706 135.23751 98.520335 137.9608 C 98.36644 140.15142 97.667827 142.11145 96.61687 143.91699 C 95.128526 146.471945 93.545007 148.957725 92.13361 151.57033 C 91.351974 153.01384 90.68576 154.59339 90.230146 156.20984 C 89.519385 158.7279 90.48124 159.98693 92.75122 159.98693 L 92.81602 159.98693 C 95.20345 159.96387 97.074513 158.70945 98.929377 157.17141 C 101.031286 155.42813 103.145345 153.6226 105.455825 152.299 C 107.09604 151.3628 108.73221 150.8555 110.346105 150.8578 C 112.35284 150.8578 114.33123 151.6372 116.244815 153.33205 C 118.624144 155.43966 121.17357 157.30515 123.686545 159.20753 C 125.792504 160.79631 128.12121 161.71176 130.658484 161.96772 C 130.883255 161.98847 131.091826 162 131.29027 162 C 133.42863 162 134.275064 160.71099 133.83362 158.008455 C 133.23221 154.29823 131.61224 151.05842 130.19477 147.71714 C 129.115465 145.178324 128.102984 142.57494 127.327424 139.90469 C 125.796554 134.66795 126.314944 129.84166 129.9457 125.76249 C 131.07158 124.49193 132.04963 123.0392 133.05401 121.63259 C 134.13534 120.1176 134.777254 118.38355 135 116.347425 C 134.72663 115.15296 134.60716 113.86856 134.14952 112.770945 C 133.05199 110.15373 130.79213 108.730976 128.40065 108.730976 C 126.86168 108.730976 125.270064 109.32129 123.90524 110.561875 C 121.86408 112.41814 119.93429 114.438125 117.90528 116.312836 C 116.99 117.15911 116.07674 117.574174 115.18576 117.574174 C 114.16518 117.574174 113.170925 117.03228 112.22527 115.96464 C 111.09534 114.687164 109.93504 113.437356 108.86991 112.0907 C 106.717375 109.3628 104.0181 108.06687 100.847015 108.002306 C 100.749817 108.002306 100.654643 108 100.557445 108 Z"
            fill="#432b69"/>

      <path class="logo-object" d="M 157.8666 99.681237 L 157.82896 99.681237 C 155.11992 99.66418 152.92304 97.59915 152.89224 95.04051 C 152.85346 92.105544 155.12221 89.826226 158.08446 89.824094 L 158.08903 89.824094 C 160.87448 89.824094 163.00977 91.848614 163.03487 94.511727 C 163.06224 97.479744 160.85623 99.681237 157.8666 99.681237 M 156.33813 81 C 156.26171 81 156.18187 81.001066 156.10658 81.001066 C 145.093645 81.091684 138.225814 92.275053 143.575445 101.263326 C 146.34607 105.92004 152.31051 108 157.24267 108 C 158.66163 108 159.99619 107.82836 161.14368 107.49467 C 167.24385 105.72708 170.96578 100.76546 171 93.22708 C 170.99087 90.011727 169.68483 86.165245 165.69485 83.49147 C 162.89913 81.62047 159.70418 81 156.33813 81"
            fill="#432b69"/>


    </g>
  </g>
</svg>
